<?xml version="1.0" standalone="no"?>
<!DOCTYPE svg PUBLIC "-//W3C//DTD SVG 20010904//EN"
 "http://www.w3.org/TR/2001/REC-SVG-20010904/DTD/svg10.dtd">
<svg version="1.0" xmlns="http://www.w3.org/2000/svg"
 width="460.000000pt" height="460.000000pt" viewBox="0 0 460.000000 460.000000"
 preserveAspectRatio="xMidYMid meet">
<metadata>
Created by potrace 1.14, written by Peter Selinger 2001-2017
</metadata>
<g transform="translate(0.000000,460.000000) scale(0.100000,-0.100000)"
fill="#000000" stroke="none">
<path d="M1705 4559 c8 -55 45 -168 56 -175 5 -3 9 -12 9 -20 0 -21 31 -65 41
-58 5 3 5 12 -1 22 -34 65 -40 90 -40 179 0 76 -3 93 -15 93 -10 0 -15 -11
-16 -37 l-2 -38 -6 34 c-3 19 -12 36 -20 39 -10 3 -12 -5 -6 -39z"/>
<path d="M2867 4583 c3 -10 9 -22 13 -28 11 -16 38 -123 55 -217 20 -104 13
-158 -19 -158 -36 0 -45 13 -49 70 l-3 55 -2 -59 -2 -59 -67 8 c-38 4 -132 9
-210 10 -128 2 -145 4 -180 26 -21 13 -39 27 -41 31 -2 4 -9 8 -15 8 -6 0 -18
6 -26 14 -23 20 -124 72 -155 80 -43 11 -72 -3 -92 -42 -11 -20 -22 -39 -25
-42 -3 -3 -9 -16 -13 -30 -3 -14 -13 -33 -21 -44 -12 -16 -18 -17 -42 -7 -15
6 -57 15 -93 21 -36 5 -83 13 -105 18 -64 13 -432 8 -495 -7 -125 -30 -290
-76 -325 -91 -11 -5 -30 -12 -42 -15 -13 -4 -23 -11 -23 -16 0 -5 -7 -9 -16
-9 -22 0 -151 -62 -231 -111 -35 -22 -68 -39 -73 -39 -6 0 -10 -4 -10 -9 0 -5
-10 -13 -22 -17 -13 -4 -25 -10 -28 -13 -3 -4 -23 -18 -45 -31 -22 -13 -44
-30 -48 -37 -4 -7 -15 -13 -22 -13 -8 0 -15 -4 -15 -9 0 -5 -10 -13 -22 -17
-12 -3 -31 -16 -42 -27 -19 -18 -19 -19 -3 -13 11 3 30 9 43 12 13 3 24 10 24
15 0 4 17 11 38 15 20 4 42 10 47 14 6 4 26 11 45 15 19 4 41 11 50 15 43 23
213 54 410 75 69 7 139 16 155 21 27 7 29 6 16 -9 -7 -10 -19 -17 -26 -17 -16
0 -256 -120 -273 -137 -7 -7 -18 -13 -23 -13 -5 0 -15 -4 -22 -10 -7 -5 -32
-26 -57 -45 -118 -92 -240 -206 -240 -224 0 -5 -4 -11 -9 -13 -5 -1 -32 -34
-62 -73 -29 -38 -56 -71 -61 -73 -4 -2 -8 -9 -8 -15 0 -7 -16 -36 -35 -64 -19
-29 -35 -57 -35 -63 0 -5 -4 -10 -9 -10 -5 0 -12 -11 -15 -25 -4 -14 -11 -25
-16 -25 -6 0 -10 -7 -10 -15 0 -8 -20 -54 -45 -102 -25 -48 -45 -92 -45 -98 0
-5 -6 -21 -13 -35 -8 -14 -16 -40 -20 -56 -6 -30 -65 -136 -79 -142 -5 -2 -8
-10 -8 -18 0 -18 26 -7 34 14 6 20 26 50 43 70 7 7 13 17 13 20 0 16 290 302
306 302 2 0 13 8 23 18 11 9 41 33 67 52 26 19 55 43 65 53 11 9 22 17 25 17
4 0 32 21 63 48 31 26 49 37 41 25 -105 -151 -174 -266 -201 -335 -6 -16 -15
-28 -19 -28 -5 0 -11 -19 -15 -42 -4 -23 -11 -49 -16 -58 -4 -8 -17 -46 -28
-85 -11 -38 -27 -94 -35 -124 -9 -29 -16 -61 -16 -70 0 -10 -3 -20 -6 -24 -4
-3 -7 -28 -9 -54 -1 -26 -5 -91 -9 -143 -6 -83 -6 -93 7 -78 8 10 17 51 20 92
3 40 10 82 15 92 5 11 16 35 25 54 36 85 105 228 136 280 11 19 28 50 38 69
23 46 26 30 9 -49 -10 -44 -14 -133 -14 -272 0 -204 2 -223 43 -408 7 -36 16
-78 20 -95 8 -44 32 -162 45 -220 6 -27 15 -58 20 -67 5 -9 13 -35 16 -58 4
-22 11 -43 15 -46 5 -3 9 -16 9 -30 0 -15 6 -24 16 -24 12 0 15 7 12 23 -5 24
13 161 36 277 8 41 20 102 27 135 6 33 15 64 20 70 5 5 9 19 9 32 0 12 6 37
14 55 8 18 23 65 35 103 11 39 28 95 37 125 9 30 22 68 29 84 12 26 13 20 18
-70 9 -148 16 -214 31 -264 8 -25 17 -69 21 -97 4 -29 10 -55 15 -58 4 -3 11
-25 14 -50 4 -24 11 -47 17 -50 5 -4 9 -87 9 -193 1 -176 12 -388 26 -511 7
-55 -19 -280 -36 -313 -9 -16 -14 -67 -25 -253 -6 -91 -15 -133 -41 -192 -8
-17 -14 -40 -14 -51 0 -12 -5 -24 -11 -27 -5 -4 -9 -19 -8 -33 3 -42 0 -62
-10 -62 -5 0 -11 7 -13 17 -3 14 -16 16 -88 14 -46 -1 -90 -7 -96 -12 -8 -7
-14 -6 -19 1 -9 14 -45 13 -45 -2 0 -9 -3 -9 -12 0 -18 18 -105 16 -112 -3 -3
-8 -10 -15 -17 -15 -6 0 -9 7 -5 15 4 11 -2 15 -22 14 -17 -1 -20 -3 -9 -6 21
-5 23 -23 2 -23 -8 0 -15 -3 -15 -7 0 -5 18 -7 40 -7 24 1 47 -4 55 -13 8 -8
15 -10 15 -5 0 5 21 8 48 7 26 -2 52 1 59 7 8 6 19 6 32 -2 12 -6 21 -7 21 -3
0 4 5 2 12 -5 16 -16 39 -15 32 1 -3 9 7 12 36 12 29 0 39 -3 36 -12 -3 -7 1
-13 9 -13 8 0 12 6 9 14 -4 9 3 14 20 14 20 0 26 -5 26 -24 0 -12 -5 -26 -10
-29 -6 -3 -10 -17 -10 -30 0 -32 -10 -55 -24 -55 -14 0 -46 -51 -46 -74 0 -9
7 -16 15 -16 9 0 15 9 15 24 0 14 4 27 8 30 5 3 6 -8 4 -25 -3 -20 0 -29 10
-29 10 0 18 22 27 67 17 90 46 175 75 222 56 88 81 88 91 0 7 -57 6 -61 -26
-97 -19 -20 -43 -55 -53 -77 -10 -22 -23 -48 -27 -57 -12 -23 -11 -58 0 -58 5
0 11 10 14 22 20 85 81 180 112 176 17 -3 20 -10 20 -58 0 -30 -4 -74 -9 -97
-6 -36 -5 -43 8 -43 12 0 16 10 16 40 0 29 4 40 15 40 8 0 15 -4 15 -10 0 -5
7 -10 15 -10 8 0 15 -3 15 -8 0 -11 97 -55 111 -50 6 2 -21 24 -62 48 -84 49
-89 54 -89 94 0 16 -11 44 -25 62 -19 25 -25 45 -25 83 0 31 -6 55 -15 65 -34
33 -10 162 42 234 43 58 125 122 156 122 7 0 22 7 33 16 18 14 17 15 -21 10
-22 -3 -41 -10 -43 -16 -2 -5 -10 -10 -18 -10 -10 0 -14 15 -14 59 0 33 4 62
9 65 5 3 12 22 15 41 4 19 11 35 16 35 6 0 10 6 10 13 0 12 53 71 82 92 56 40
113 65 161 72 22 3 37 11 37 19 0 17 -14 17 -64 -1 l-39 -14 7 45 c6 50 28 88
70 124 59 50 89 63 163 68 48 3 77 10 85 20 11 13 4 14 -66 7 l-80 -7 30 29
c42 41 76 61 118 68 20 4 44 17 54 30 54 68 212 47 212 -29 0 -26 -13 -35 -25
-16 -3 6 -15 10 -27 10 -17 0 -18 -2 -8 -15 7 -8 18 -15 24 -15 6 0 18 -9 26
-21 8 -11 23 -30 33 -41 9 -12 17 -30 17 -40 0 -11 5 -28 11 -40 14 -26 6 -33
-14 -13 -9 8 -20 15 -26 15 -6 0 -11 5 -11 10 0 6 -7 10 -15 10 -23 0 -18 -16
10 -34 32 -21 86 -76 105 -106 9 -14 24 -51 35 -83 16 -51 17 -64 6 -105 -7
-26 -14 -48 -16 -50 -2 -3 -19 11 -38 29 -45 44 -64 59 -77 59 -19 0 -10 -18
18 -35 50 -33 101 -93 122 -145 6 -14 16 -36 23 -49 18 -36 13 -163 -7 -192
-9 -13 -16 -19 -16 -14 0 28 -121 125 -155 125 -18 0 3 -23 42 -46 52 -30 110
-88 119 -119 4 -11 9 -22 13 -25 9 -7 41 -105 41 -124 0 -10 -8 -16 -23 -16
-43 0 -67 -27 -67 -75 0 -34 -5 -48 -25 -63 -32 -25 -47 -65 -49 -125 -1 -34
-7 -53 -19 -61 -18 -14 -23 -36 -7 -36 5 0 13 8 19 18 8 14 13 15 28 4 49 -34
69 -26 28 12 -56 52 -23 194 39 170 8 -3 36 -50 63 -105 26 -54 51 -98 56 -99
14 0 7 29 -18 76 -14 26 -25 52 -25 57 0 6 -18 32 -40 58 -22 26 -40 57 -40
68 0 31 17 68 34 74 23 9 70 -10 85 -36 33 -51 111 -208 111 -222 0 -8 4 -15
9 -15 5 0 12 -14 16 -30 4 -17 13 -30 20 -30 17 0 10 28 -27 99 -15 31 -28 61
-28 68 0 6 -3 13 -7 15 -5 2 -18 24 -31 50 -13 26 -27 50 -33 53 -21 14 -8 35
21 35 52 0 104 -64 160 -195 12 -27 25 -59 30 -70 4 -11 11 -28 14 -37 8 -28
23 -21 28 11 2 17 1 28 -4 25 -4 -3 -8 4 -8 15 0 12 -4 21 -10 21 -5 0 -10 7
-10 15 0 8 5 15 10 15 6 0 10 -6 10 -14 0 -24 17 -28 36 -9 17 17 18 17 10 -2
-4 -11 -9 -37 -11 -57 -4 -31 -1 -38 13 -38 12 0 18 9 19 31 1 18 9 50 17 73
7 23 22 68 31 101 10 33 21 67 26 76 4 9 11 34 15 55 3 22 10 44 14 49 5 6 13
33 19 60 16 74 37 158 44 175 3 8 11 38 16 65 25 122 34 161 41 180 5 11 16
46 26 78 9 31 21 57 25 57 5 0 9 7 9 15 0 8 3 15 8 15 4 0 18 36 32 81 13 44
28 83 32 85 4 3 8 15 8 27 0 12 7 35 15 51 8 15 15 35 15 42 0 8 4 22 9 32 5
9 12 25 15 34 3 10 11 18 18 18 10 0 10 -2 0 -9 -8 -5 -11 -17 -7 -33 4 -15 2
-29 -4 -32 -6 -4 -11 -22 -11 -40 0 -18 -3 -36 -7 -40 -4 -3 -8 -14 -9 -24 -2
-9 -8 -42 -14 -72 -7 -30 -13 -62 -15 -70 -11 -57 -19 -80 -26 -80 -4 0 -8 -8
-8 -17 0 -10 -5 -36 -11 -58 -13 -46 -18 -67 -26 -113 -4 -17 -10 -32 -15 -32
-5 0 -8 -3 -7 -7 4 -16 -13 -103 -21 -108 -5 -2 -12 -29 -16 -60 -3 -30 -10
-57 -14 -60 -5 -2 -11 -27 -15 -54 -4 -28 -10 -53 -15 -55 -5 -3 -12 -26 -15
-51 -4 -24 -11 -47 -17 -50 -5 -4 -9 -18 -9 -33 0 -15 -6 -39 -14 -54 -8 -14
-17 -45 -21 -67 -4 -23 -10 -43 -15 -46 -4 -3 -11 -21 -14 -40 -4 -19 -11 -35
-16 -35 -6 0 -10 -13 -10 -30 l0 -30 134 0 c120 0 135 2 139 18 4 16 5 16 6 0
1 -21 16 -24 28 -5 4 6 19 46 34 87 14 41 31 88 38 104 10 24 302 326 316 326
2 0 19 14 37 31 18 17 43 38 56 46 21 15 24 14 57 -20 41 -42 42 -48 13 -66
-88 -55 -393 -358 -468 -465 -8 -12 -20 -27 -27 -34 -7 -7 -13 -15 -13 -16 0
-7 126 0 138 7 7 5 12 4 12 -3 0 -6 14 2 30 18 17 17 30 35 30 41 0 6 8 11 17
11 13 0 9 -8 -15 -33 -32 -33 -39 -47 -24 -47 4 0 82 74 173 164 203 200 269
246 269 187 0 -9 5 -22 12 -29 7 -7 13 -68 16 -167 3 -85 9 -155 13 -155 17 0
9 280 -9 350 -15 55 -55 139 -84 175 -4 5 -22 26 -38 45 -16 19 -34 53 -39 75
-5 22 -17 67 -26 100 -9 33 -22 89 -30 125 -7 36 -18 85 -24 110 -44 188 -89
568 -71 599 7 12 9 8 10 -20 0 -20 7 -42 15 -49 12 -10 15 2 17 91 l3 103 43
9 c23 4 42 12 42 17 0 4 11 11 25 14 14 4 25 11 25 16 0 6 5 10 10 10 13 0 50
37 50 50 0 5 6 13 14 17 28 16 59 94 64 163 6 91 -10 154 -51 192 -40 38 -67
48 -123 48 -41 0 -57 11 -35 24 5 3 12 56 16 118 4 62 11 133 16 158 7 31 7
51 -1 65 -8 15 -8 44 0 105 11 89 22 269 14 235 -12 -54 -37 -142 -45 -160 -4
-11 -10 -31 -12 -45 -3 -14 -4 150 -3 364 1 303 -2 390 -11 393 -10 4 -13 -56
-13 -274 0 -154 -4 -283 -9 -289 -5 -5 -11 -18 -14 -29 -3 -11 -5 3 -6 30 0
28 -5 55 -10 60 -5 6 -14 30 -19 55 -21 89 -33 135 -41 150 -5 9 -12 30 -16
49 -4 18 -13 44 -21 59 -8 15 -14 35 -14 45 0 9 -4 17 -9 17 -5 0 -12 17 -16
37 -4 21 -10 40 -14 43 -4 3 -24 50 -46 105 -22 55 -43 102 -47 105 -3 3 -10
18 -13 33 -4 15 -11 27 -15 27 -5 0 -11 14 -15 30 -4 17 -10 30 -15 30 -5 0
-11 14 -15 30 -4 17 -11 30 -17 30 -6 0 -7 -8 -3 -17 6 -17 37 -115 55 -178 5
-16 12 -50 16 -75 4 -25 11 -50 15 -56 5 -6 12 -33 15 -60 4 -27 10 -53 14
-59 5 -5 11 -32 15 -60 4 -27 11 -55 16 -61 5 -6 12 -40 15 -75 4 -35 10 -69
15 -74 4 -6 11 -35 15 -65 4 -30 10 -62 15 -71 4 -8 11 -51 14 -95 4 -43 11
-86 16 -95 4 -9 10 -47 14 -85 8 -108 28 -213 38 -207 5 3 4 -4 -2 -14 -6 -11
-8 -23 -5 -25 2 -3 5 -22 6 -42 1 -20 7 -41 15 -48 11 -9 11 -13 1 -19 -8 -6
-9 -9 -2 -9 9 0 12 -97 12 -352 l1 -353 -19 59 c-11 32 -24 64 -29 70 -4 6
-11 22 -14 36 -9 44 -54 159 -77 202 -6 10 -10 23 -10 29 0 6 -6 25 -14 42 -7
18 -21 52 -31 77 -10 25 -29 69 -42 99 -15 33 -22 63 -18 75 28 90 21 116 -30
116 -22 0 -64 44 -65 67 -1 4 -9 26 -20 48 -11 22 -19 46 -20 53 0 7 -4 20
-10 30 -20 36 -50 112 -50 126 0 8 -4 17 -9 21 -5 3 -12 19 -16 35 -4 17 -10
30 -15 30 -5 0 -11 13 -15 30 -4 16 -11 32 -16 35 -5 4 -9 14 -9 23 -1 9 -9
35 -20 57 -11 22 -19 47 -20 56 0 9 -3 19 -7 23 -4 3 -12 22 -19 42 -11 33
-11 34 10 29 35 -10 136 -55 146 -65 3 -3 21 -17 40 -32 19 -14 45 -36 58 -47
36 -35 27 2 -10 41 -69 71 -204 158 -246 158 -29 0 -48 40 -56 120 -7 74 -27
150 -38 150 -11 0 -10 -53 1 -82 4 -13 12 -57 15 -99 l8 -77 -44 -7 c-70 -11
-108 -25 -108 -42 0 -12 6 -13 23 -8 28 10 84 11 120 2 25 -7 27 -12 28 -55 0
-26 4 -69 10 -97 5 -27 16 -120 23 -205 8 -85 17 -163 21 -172 5 -13 2 -18
-11 -18 -29 0 -41 12 -49 50 -4 19 -11 41 -15 50 -13 26 -57 149 -70 195 -5
17 -18 55 -29 85 -18 47 -57 160 -103 300 -12 37 -20 66 -44 165 -28 112 -35
150 -37 200 -1 28 -6 50 -12 50 -12 0 -22 -51 -34 -168 -12 -118 -38 -319 -50
-400 -19 -116 -41 -292 -44 -342 -2 -27 -4 27 -5 122 -2 162 -3 173 -23 187
-20 14 -21 20 -17 270 3 248 -2 315 -16 201 -3 -31 -10 -63 -16 -73 -10 -19
-24 -90 -47 -242 -18 -122 -30 -715 -14 -734 5 -6 12 -54 16 -106 4 -52 11
-99 16 -104 5 -6 9 -21 9 -35 0 -15 7 -39 15 -55 18 -34 18 -36 5 -36 -6 0
-14 8 -17 18 -4 9 -9 19 -12 22 -10 9 -129 241 -166 325 -14 33 -32 74 -39 90
-39 87 -46 104 -46 117 0 8 -4 18 -9 24 -11 10 -24 60 -47 167 -8 38 -16 72
-19 77 -5 9 -23 306 -30 510 -2 74 0 149 5 165 5 17 13 66 19 110 10 83 24
157 41 209 5 17 19 65 31 106 12 41 25 82 29 90 4 8 16 34 26 58 12 27 27 45
42 48 27 8 92 -4 92 -16 0 -4 14 -11 30 -15 17 -4 30 -10 30 -15 0 -4 8 -10
18 -14 9 -3 51 -28 92 -55 l75 -49 165 -1 c91 0 201 -5 245 -11 112 -13 274
-51 332 -76 17 -8 40 -14 52 -14 12 0 21 -4 21 -10 0 -5 6 -10 13 -10 6 -1 30
-9 52 -20 22 -11 46 -19 53 -20 6 0 12 -4 12 -9 0 -5 10 -13 23 -17 12 -4 24
-10 27 -13 3 -4 23 -18 45 -31 55 -33 58 -35 146 -119 44 -41 79 -80 79 -88 0
-7 4 -13 9 -13 11 0 111 -200 111 -222 0 -10 4 -18 9 -18 6 0 13 -20 17 -45 3
-25 10 -45 14 -45 5 0 11 -24 15 -52 4 -29 11 -58 15 -63 34 -42 44 -565 16
-825 -33 -306 -31 -296 -40 -275 -4 11 -11 29 -16 40 -4 11 -15 37 -24 58 -9
21 -16 45 -16 55 -1 21 -23 52 -39 52 -14 0 -14 -2 4 -36 8 -16 15 -39 15 -51
0 -13 4 -23 10 -23 5 0 12 -16 16 -37 4 -20 13 -48 20 -62 8 -14 14 -33 14
-42 0 -9 3 -19 7 -23 5 -4 14 -30 20 -57 7 -27 19 -71 26 -98 6 -27 15 -53 20
-57 4 -4 7 -17 6 -28 0 -15 -2 -17 -6 -6 -3 8 -9 17 -12 20 -3 3 -28 49 -55
103 -45 90 -66 117 -66 83 0 -16 31 -78 43 -87 5 -4 6 -37 3 -75 -3 -38 -8
-186 -12 -329 -6 -260 9 -600 37 -814 6 -46 12 -236 13 -422 1 -264 4 -339 14
-339 8 0 12 21 12 74 0 50 4 76 13 79 9 3 9 8 1 16 -10 11 -9 119 1 149 2 6 0
12 -5 12 -6 0 -10 40 -10 95 l0 95 148 2 c200 4 275 0 284 -15 5 -9 10 -9 20
1 8 8 47 12 120 12 l109 0 -1 1270 c-1 1189 -2 1270 -18 1268 -11 -2 -16 3
-14 15 2 9 0 17 -4 17 -4 0 -13 -8 -20 -17 -13 -17 -14 -17 -8 0 3 9 3 17 -1
17 -4 0 -14 -8 -21 -17 -13 -17 -14 -17 -8 0 8 22 -5 22 -21 0 -11 -15 -12
-13 -9 15 3 27 0 32 -14 30 -11 -2 -16 3 -14 15 4 25 -5 21 -37 -14 l-29 -31
4 30 c3 26 0 30 -21 30 -14 0 -25 -6 -25 -12 0 -7 -3 -6 -9 2 -4 7 -14 12 -22
10 -9 -2 -13 4 -11 16 2 13 -1 17 -11 13 -7 -3 -20 -1 -28 4 -10 6 -10 9 -1 9
6 0 12 4 12 9 0 5 -11 9 -25 9 -14 0 -24 -6 -23 -12 2 -6 -2 -11 -7 -11 -5 0
-9 5 -7 11 1 6 -9 12 -23 12 -14 0 -24 -6 -23 -12 2 -6 -2 -11 -7 -11 -6 0 -9
5 -7 11 1 6 -9 12 -23 12 -18 0 -25 -5 -21 -14 7 -18 -6 -25 -24 -13 -10 6
-11 9 -2 9 6 0 12 4 12 9 0 5 -12 9 -26 9 -17 0 -24 -5 -20 -14 7 -18 -6 -25
-24 -13 -10 6 -11 9 -2 9 6 0 12 5 12 11 0 6 -7 9 -15 5 -8 -3 -21 2 -30 10
-13 14 -15 12 -15 -14 0 -16 3 -32 7 -36 9 -9 10 -135 1 -129 -5 2 -8 33 -8
69 0 36 -4 64 -10 64 -11 0 -14 86 -2 93 4 2 1 2 -5 1 -9 -2 -13 9 -13 31 0
19 -4 35 -9 35 -4 0 -11 19 -14 43 -3 24 -13 56 -21 72 -9 17 -16 38 -16 48 0
9 -4 17 -10 17 -5 0 -10 7 -10 15 0 23 -60 145 -92 186 -15 20 -28 39 -28 42
0 18 -179 181 -220 201 -17 8 -38 20 -97 59 -24 15 -45 27 -48 27 -2 0 -28 11
-57 25 -69 32 -221 81 -278 90 -73 12 -79 18 -69 67 21 111 31 221 25 274 -9
77 -16 104 -28 104 -6 0 -7 -37 -4 -97 4 -54 3 -114 -2 -133 -8 -33 -9 -30
-15 34 -3 37 -10 73 -15 80 -5 6 -12 28 -16 49 -4 20 -11 37 -16 37 -6 0 -10
7 -10 15 0 8 -7 15 -15 15 -9 0 -12 -6 -8 -17z m-1012 -382 c84 -13 145 -31
145 -42 0 -4 -4 -18 -9 -31 -10 -26 -33 -108 -51 -187 -16 -67 -29 -172 -35
-271 -7 -104 -15 -160 -23 -160 -4 0 -18 -35 -32 -77 -13 -43 -27 -82 -31 -88
-4 -5 -10 -26 -14 -45 -4 -19 -11 -39 -15 -45 -4 -5 -11 -25 -15 -43 -7 -33
-7 -33 -33 -16 -16 10 -46 17 -79 17 l-53 0 6 51 c7 62 33 183 44 211 5 11 12
35 15 53 4 18 13 45 21 60 8 15 14 35 14 44 0 9 4 19 9 23 5 3 12 19 16 35 4
17 10 30 15 30 5 0 12 10 16 23 4 12 17 39 30 59 13 20 20 39 15 42 -12 8 -32
-19 -71 -94 -18 -36 -39 -76 -47 -90 -7 -14 -13 -33 -13 -42 0 -9 -4 -19 -9
-22 -5 -4 -12 -24 -16 -46 -4 -22 -10 -40 -15 -40 -4 0 -11 -25 -15 -57 -4
-31 -11 -64 -16 -75 -5 -10 -13 -27 -19 -38 -5 -11 -10 -32 -11 -47 0 -16 -3
-22 -6 -15 -6 16 -45 -57 -41 -78 2 -10 -20 -27 -62 -48 -61 -32 -85 -51 -75
-60 2 -3 22 5 45 17 22 11 48 21 57 21 14 0 14 -2 -2 -20 -40 -45 -125 -341
-127 -443 -1 -38 -4 -53 -10 -45 -6 8 -7 0 -3 -24 3 -20 1 -45 -4 -55 -9 -16
-39 -194 -40 -233 0 -8 -4 -44 -10 -80 -5 -36 -14 -103 -20 -150 -6 -47 -16
-120 -22 -163 -5 -43 -10 -135 -11 -205 0 -70 -2 -120 -5 -112 -9 24 -43 104
-52 120 -5 9 -12 30 -16 48 -3 18 -10 32 -15 32 -4 0 -11 20 -14 45 -4 24 -11
47 -16 50 -4 3 -11 24 -15 47 -4 23 -11 49 -16 58 -9 17 -26 102 -40 205 -5
39 -14 106 -20 150 -6 44 -9 127 -6 185 7 177 60 462 98 532 5 10 9 23 9 30 1
7 9 31 20 53 11 22 19 44 20 48 0 4 18 44 40 89 22 44 37 85 33 91 -7 11 -37
-36 -84 -130 -17 -35 -36 -63 -41 -63 -5 0 -7 -4 -3 -10 8 -13 -5 -60 -16 -60
-6 0 -5 8 1 19 5 11 10 23 10 26 0 14 -26 -23 -50 -70 -14 -28 -27 -52 -30
-55 -10 -10 -50 -97 -50 -109 0 -6 -4 -11 -10 -11 -5 0 -10 -10 -10 -23 0 -12
-6 -31 -14 -42 -7 -11 -17 -36 -21 -55 -4 -19 -11 -41 -15 -50 -21 -40 -76
-329 -67 -352 3 -7 6 -2 6 13 1 14 5 29 10 35 4 5 14 31 20 57 6 27 20 68 31
90 10 23 33 76 50 117 18 41 38 89 45 105 7 17 16 37 19 45 7 21 -3 -85 -14
-140 -5 -25 -12 -82 -16 -127 -3 -46 -10 -83 -15 -83 -5 0 -9 -5 -9 -11 0 -6
-6 -25 -14 -42 -12 -30 -31 -90 -71 -227 -9 -30 -21 -63 -26 -72 -5 -10 -9
-24 -9 -33 0 -8 -6 -34 -13 -57 -26 -82 -77 -334 -78 -386 0 -20 -3 -30 -6
-22 -2 8 -8 24 -13 35 -10 22 -26 88 -43 180 -7 33 -15 65 -18 70 -4 6 -10 39
-13 75 -4 35 -11 69 -14 75 -12 17 -32 163 -44 304 -7 96 -7 169 1 255 11 125
31 253 42 271 4 6 10 30 14 55 4 24 11 51 16 60 4 8 15 33 24 55 9 22 25 58
36 81 10 23 19 46 19 52 0 6 3 12 8 14 4 2 18 24 32 51 13 26 28 47 31 47 4 0
10 8 13 18 8 21 27 53 44 72 7 8 28 38 47 65 19 28 78 94 132 147 53 54 93
101 89 105 -11 11 -234 -223 -281 -295 -29 -44 -45 -60 -57 -56 -11 3 -27 -7
-45 -26 -15 -17 -43 -41 -63 -52 -19 -12 -80 -55 -135 -97 -94 -70 -108 -81
-138 -106 -7 -6 -34 -28 -62 -50 -27 -22 -89 -80 -138 -128 -50 -48 -91 -86
-93 -84 -5 5 28 91 37 97 4 3 11 18 14 33 4 15 11 27 16 27 5 0 9 6 9 13 0 14
52 117 88 177 12 19 26 45 32 58 5 12 14 22 19 22 5 0 12 11 15 25 4 14 11 25
16 25 6 0 10 7 10 15 0 7 6 18 13 22 8 4 18 15 23 24 27 48 142 173 230 249
80 69 209 151 339 215 102 50 223 92 290 102 25 3 45 9 45 13 0 4 27 10 60 14
54 6 74 17 53 29 -8 4 -93 -11 -188 -33 -27 -6 -81 -13 -120 -15 -144 -8 -331
-26 -359 -35 -16 -6 -41 -10 -56 -10 -15 0 -52 -7 -81 -16 -85 -24 -152 -43
-179 -49 -14 -4 18 19 70 51 52 32 97 60 100 63 3 4 50 28 105 54 142 69 157
76 188 83 15 3 30 10 33 15 3 5 14 9 26 9 11 0 34 6 51 14 37 16 88 30 207 56
71 15 122 18 305 15 121 -1 252 -7 290 -14z m680 -717 c25 -119 40 -179 46
-189 4 -5 10 -26 14 -45 4 -19 11 -41 16 -50 4 -8 24 -64 45 -125 20 -60 40
-114 44 -120 4 -5 11 -26 15 -45 4 -19 11 -39 15 -45 4 -5 11 -26 15 -45 4
-19 10 -39 13 -45 17 -28 49 -136 42 -140 -5 -3 -28 -1 -52 4 -24 5 -74 12
-113 15 -63 6 -68 5 -45 -7 14 -8 55 -17 91 -21 107 -10 139 -25 155 -72 17
-50 18 -48 -8 -39 -32 9 -61 13 -150 21 l-78 7 0 -47 c0 -48 1 -49 53 -60 23
-5 27 -11 27 -39 0 -17 -4 -49 -9 -70 l-9 -38 39 6 c36 6 42 4 74 -28 41 -41
43 -58 13 -87 -23 -22 -50 -23 -107 -4 -19 6 -23 4 -19 -8 3 -8 9 -46 12 -84
12 -130 12 -129 59 -148 48 -19 235 -43 260 -33 9 3 24 23 33 44 9 21 20 45
25 55 5 11 3 20 -6 28 -22 18 -19 49 3 43 24 -6 38 39 52 164 13 117 16 123
51 123 28 0 29 -1 29 -54 0 -30 -4 -65 -9 -78 -4 -13 -11 -42 -15 -65 -10 -67
19 -44 33 25 14 72 30 100 32 57 2 -40 3 -32 -25 -175 -34 -170 -46 -222 -56
-245 -5 -11 -14 -42 -19 -70 -5 -27 -17 -77 -26 -110 -9 -33 -19 -71 -22 -85
-7 -30 -31 -60 -50 -60 -7 0 -13 -4 -13 -9 0 -5 -13 -12 -30 -16 -16 -4 -30
-11 -30 -16 0 -5 -5 -9 -11 -9 -5 0 -29 -8 -52 -19 -60 -26 -177 -69 -212 -77
-16 -4 -34 -10 -40 -14 -5 -4 -28 -11 -50 -15 -22 -4 -46 -12 -53 -18 -19 -15
-244 -16 -263 -1 -8 7 -29 15 -48 19 -37 8 -71 33 -71 52 0 7 -4 13 -10 13
-13 0 -13 37 -1 45 16 9 -8 62 -35 80 -16 10 -50 17 -89 18 -58 2 -67 -1 -103
-31 -23 -17 -48 -32 -56 -32 -8 0 -18 -4 -21 -10 -18 -29 -104 -2 -200 62
-116 78 -148 132 -158 265 -6 74 -21 146 -47 223 -4 14 -18 59 -30 100 -12 41
-26 89 -31 105 -14 48 -22 169 -14 211 l7 38 19 -24 c26 -32 54 -96 62 -140
12 -62 41 -150 49 -150 11 0 10 37 -1 44 -4 3 -11 31 -15 63 -4 32 -12 75 -18
97 -11 34 -10 40 7 52 10 8 31 14 45 14 l27 0 -4 -72 c-5 -82 6 -110 34 -92
14 9 25 8 48 -5 29 -16 64 -50 65 -63 1 -18 -35 -38 -71 -38 -21 0 -39 -3 -39
-7 0 -16 39 -127 69 -196 l16 -38 55 6 c62 7 143 30 180 50 21 11 26 22 28 64
2 39 -1 53 -12 57 -20 8 -21 34 -1 34 36 0 41 68 19 273 -6 48 -4 57 10 57 22
0 20 12 -4 33 -15 13 -18 22 -12 35 10 19 5 45 -8 37 -15 -9 -244 -25 -252
-17 -4 4 -5 17 -2 29 5 18 16 23 53 28 110 14 190 30 184 36 -5 4 -39 4 -78
-1 -38 -5 -87 -9 -108 -10 l-37 0 6 58 c3 31 12 82 19 112 7 30 20 91 30 135
10 44 24 97 31 118 8 20 14 49 14 62 0 14 6 25 13 25 9 0 14 14 14 44 0 25 4
51 10 58 6 7 14 29 18 48 4 19 11 40 15 45 4 6 11 26 15 45 4 19 11 40 15 45
4 6 11 25 15 43 14 66 25 17 26 -116 1 -219 34 -430 85 -549 8 -17 14 -36 14
-42 0 -6 4 -19 10 -29 5 -9 16 -33 24 -52 69 -164 198 -423 257 -515 14 -22
28 -47 32 -55 8 -19 30 -53 38 -60 3 -3 15 -22 28 -42 23 -38 50 -53 36 -20
-5 9 -12 53 -16 97 -5 44 -14 104 -20 132 -17 86 -15 391 4 543 10 74 24 194
33 265 8 72 17 144 20 160 3 17 9 66 15 110 13 106 42 275 46 271 2 -2 10 -34
18 -72z m-1746 -181 c-50 -81 -98 -186 -123 -268 -22 -70 -48 -138 -56 -145
-12 -10 -80 -128 -80 -138 0 -6 -4 -12 -8 -14 -11 -4 -102 -187 -102 -204 0
-7 -5 -16 -10 -19 -16 -10 10 101 62 265 26 83 112 276 129 290 4 3 10 16 14
30 4 14 10 27 14 30 10 8 51 69 51 75 0 4 14 20 30 37 17 16 30 34 30 38 0 5
12 22 28 38 15 16 34 39 42 51 8 12 16 17 18 12 2 -5 -16 -40 -39 -78z m781
-88 c0 -8 -7 -15 -15 -15 -13 0 -14 3 -3 15 16 18 18 18 18 0z m1797 -42 c-3
-10 -5 -4 -5 12 0 17 2 24 5 18 2 -7 2 -21 0 -30z m888 -23 c-3 -5 -13 -6 -21
-3 -12 4 -13 8 -3 14 15 9 32 2 24 -11z m-2690 -17 c-3 -15 -10 -30 -14 -33
-4 -3 -17 -27 -29 -55 -12 -27 -21 -42 -22 -32 0 9 9 34 20 54 23 44 25 59 8
66 -7 3 -3 6 10 6 12 1 22 6 22 11 0 6 3 10 6 10 3 0 3 -12 -1 -27z m181 -15
c-4 -24 -13 -61 -21 -83 -8 -22 -14 -49 -15 -60 0 -11 -7 -38 -15 -60 -8 -22
-14 -56 -15 -75 0 -20 -5 -41 -10 -46 -6 -6 -13 -47 -17 -92 -4 -54 -10 -83
-19 -86 -9 -3 -14 2 -14 12 -1 9 -7 67 -14 127 -8 61 -13 157 -11 215 1 58 3
124 4 148 l1 42 76 0 76 0 -6 -42z m1681 -15 c-3 -10 -5 -2 -5 17 0 19 2 27 5
18 2 -10 2 -26 0 -35z m-544 -39 c4 -4 7 -16 7 -26 0 -10 9 -35 20 -55 11 -21
20 -43 20 -49 0 -6 6 -24 14 -40 24 -50 62 -137 80 -184 10 -25 24 -58 31 -75
7 -16 20 -50 30 -75 9 -25 21 -53 26 -62 5 -10 9 -20 9 -23 0 -8 -114 4 -162
16 -33 8 -38 14 -44 47 -9 47 -9 46 18 54 15 4 17 6 6 7 -26 2 -38 58 -48 231
-6 85 -14 169 -19 185 -5 17 -12 50 -15 75 -5 44 -5 44 7 13 7 -17 15 -35 20
-39z m-1794 -10 c-7 -18 -13 -24 -16 -16 -3 8 0 19 6 25 6 6 12 20 12 32 1 14
3 15 6 4 2 -8 -1 -29 -8 -45z m1248 24 c-3 -8 -6 -5 -6 6 -1 11 2 17 5 13 3
-3 4 -12 1 -19z m-768 -160 c0 -84 5 -169 11 -188 5 -19 10 -56 10 -82 0 -43
-2 -47 -27 -50 -14 -2 -29 -9 -31 -17 -4 -10 0 -12 14 -6 43 17 49 16 60 -14
11 -27 10 -30 -15 -40 -14 -5 -65 -13 -113 -16 -49 -4 -88 -11 -88 -16 0 -6
-5 -7 -10 -4 -6 3 -7 18 -4 33 12 54 45 167 55 184 5 10 9 25 9 33 0 9 20 67
45 129 25 63 45 117 45 120 0 7 34 86 37 86 1 0 2 -69 2 -152z m768 -170 c-1
-57 -3 -11 -3 102 0 113 2 159 3 103 2 -57 2 -149 0 -205z m1060 235 c-3 -10
-5 -2 -5 17 0 19 2 27 5 18 2 -10 2 -26 0 -35z m-2335 -5 c-6 -6 -7 0 -4 19 5
21 7 23 10 9 2 -10 0 -22 -6 -28z m409 -60 c-15 -32 -20 -37 -21 -20 0 12 4
22 9 22 5 0 13 15 17 33 4 17 9 27 11 20 2 -6 -5 -31 -16 -55z m1986 5 c-3
-10 -5 -4 -5 12 0 17 2 24 5 18 2 -7 2 -21 0 -30z m-2397 23 c0 -3 -4 -8 -10
-11 -5 -3 -10 -1 -10 4 0 6 5 11 10 11 6 0 10 -2 10 -4z m386 -103 c-10 -10
-19 5 -10 18 6 11 8 11 12 0 2 -7 1 -15 -2 -18z m2074 5 c0 -18 -2 -20 -9 -8
-6 8 -7 18 -5 22 9 14 14 9 14 -14z m-38 -40 c2 -20 0 -34 -4 -32 -4 3 -8 24
-7 47 1 47 6 41 11 -15z m-55 0 c-3 -7 -5 -2 -5 12 0 14 2 19 5 13 2 -7 2 -19
0 -25z m-2003 -16 c-4 -18 -10 -29 -14 -27 -5 3 -3 18 3 35 14 37 19 33 11 -8z
m2092 -64 c-3 -46 -6 -114 -6 -152 0 -38 -2 -67 -5 -64 -8 8 -7 181 1 203 7
18 6 18 -9 6 -15 -12 -17 -11 -17 7 0 15 5 20 15 16 12 -5 15 2 15 30 0 20 3
36 6 36 4 0 4 -37 0 -82z m-2125 -34 c-5 -21 -9 -30 -10 -19 -1 24 10 67 15
62 3 -2 0 -22 -5 -43z m2056 -16 c-2 -13 -4 -3 -4 22 0 25 2 35 4 23 2 -13 2
-33 0 -45z m120 -5 c-3 -10 -5 -4 -5 12 0 17 2 24 5 18 2 -7 2 -21 0 -30z m5
-117 c-6 -13 -9 -56 -6 -97 2 -41 1 -68 -2 -61 -14 30 -19 3 -21 -114 -1 -69
-7 -131 -12 -138 -5 -6 -11 -32 -13 -56 -3 -25 -5 10 -5 78 -1 102 1 122 13
118 19 -7 18 4 -2 18 -16 12 -9 51 7 40 5 -3 9 0 9 5 0 6 -4 11 -8 11 -14 0 0
75 16 88 12 9 14 15 5 20 -9 6 -9 18 -2 47 6 22 11 56 11 75 1 32 1 33 11 12
7 -15 7 -29 -1 -46z m-698 38 c11 -4 16 -18 15 -48 -1 -22 -3 -33 -6 -23 -2 9
-8 17 -13 17 -4 0 -10 14 -12 30 -3 17 -3 30 -2 30 1 0 9 -3 18 -6z m583 -56
c-3 -7 -5 -2 -5 12 0 14 2 19 5 13 2 -7 2 -19 0 -25z m-1100 -190 c-2 -13 -4
-3 -4 22 0 25 2 35 4 23 2 -13 2 -33 0 -45z m13 -149 c0 -39 4 -69 10 -69 6 0
10 -17 9 -37 0 -21 -3 -31 -6 -23 -3 8 -11 18 -16 22 -12 7 -16 189 -4 181 4
-2 7 -35 7 -74z m-1033 -16 c-3 -10 -5 -2 -5 17 0 19 2 27 5 18 2 -10 2 -26 0
-35z m2373 -2 c26 -21 38 -41 49 -84 40 -154 -72 -334 -225 -363 l-36 -7 7 84
c10 125 32 210 62 237 15 12 32 22 40 22 8 0 21 7 29 15 14 13 13 15 -7 15
-12 0 -37 -9 -55 -21 -37 -22 -39 -21 -24 25 5 17 12 48 15 68 4 28 11 38 28
41 39 8 81 -4 117 -32z m-1364 -28 c-4 -4 -11 -1 -16 7 -16 25 -11 35 7 17 9
-9 13 -20 9 -24z m-587 13 c9 -10 9 -16 1 -21 -17 -11 -40 3 -34 20 8 19 18
19 33 1z m1081 -1 c0 -8 -9 -15 -20 -15 -20 0 -26 11 -13 23 12 13 33 7 33 -8z
m134 -33 c18 -65 -23 -152 -80 -166 -41 -11 -89 10 -109 48 -24 44 -15 63 35
71 22 4 47 13 54 21 8 8 19 14 24 14 5 0 18 11 28 25 23 31 36 28 48 -13z
m286 -9 c0 -13 -4 -23 -10 -23 -5 0 -10 17 -10 38 0 27 3 33 10 22 5 -8 10
-25 10 -37z m-1896 6 c8 -44 6 -71 -4 -34 -4 17 -11 38 -15 48 -4 9 -3 17 3
17 5 0 12 -14 16 -31z m405 -36 c25 3 55 6 66 8 15 3 21 -2 23 -23 4 -33 -18
-68 -55 -89 -73 -43 -170 28 -133 96 11 20 16 22 32 14 11 -6 41 -9 67 -6z
m1519 -48 c0 -16 -2 -15 -8 5 -11 34 -11 60 0 35 5 -11 8 -29 8 -40z m-1966
-2 c-3 -16 -7 -22 -10 -15 -4 13 4 42 11 42 2 0 2 -12 -1 -27z m65 -5 c-3 -7
-5 -2 -5 12 0 14 2 19 5 13 2 -7 2 -19 0 -25z m1850 0 c-3 -7 -5 -2 -5 12 0
14 2 19 5 13 2 -7 2 -19 0 -25z m-1837 -40 c0 -18 -2 -20 -9 -8 -6 8 -7 18 -5
22 9 14 14 9 14 -14z m1811 -59 l-11 -34 5 34 c3 18 6 45 6 60 l2 26 4 -26 c2
-15 -1 -42 -6 -60z m120 11 c5 0 9 -8 9 -17 0 -29 -30 21 -35 59 -4 31 -4 31
6 -4 6 -21 15 -38 20 -38z m-1911 -6 c0 -8 -5 -12 -10 -9 -6 4 -8 11 -5 16 9
14 15 11 15 -7z m7 -66 c-3 -8 -6 -5 -6 6 -1 11 2 17 5 13 3 -3 4 -12 1 -19z
m1928 12 c3 -5 1 -10 -4 -10 -6 0 -11 5 -11 10 0 6 2 10 4 10 3 0 8 -4 11 -10z
m-168 -22 c-3 -8 -6 -5 -6 6 -1 11 2 17 5 13 3 -3 4 -12 1 -19z m197 -77 c-7
-7 -12 3 -18 39 l-6 35 14 -35 c7 -19 12 -37 10 -39z m-1916 -104 c5 -21 15
-44 22 -52 13 -16 13 -19 30 -256 9 -123 9 -172 1 -187 -6 -12 -12 -39 -13
-62 -1 -38 -5 -43 -60 -77 -32 -20 -58 -40 -58 -44 0 -5 -8 -9 -17 -9 -14 0
-13 4 6 24 13 13 24 37 26 53 2 15 5 44 8 63 3 19 8 109 12 200 3 91 9 190 13
220 3 30 6 105 6 165 -1 89 0 99 6 55 5 -30 12 -72 18 -93z m1709 111 c-3 -7
-5 -2 -5 12 0 14 2 19 5 13 2 -7 2 -19 0 -25z m-20 -50 c-3 -7 -5 -2 -5 12 0
14 2 19 5 13 2 -7 2 -19 0 -25z m-1984 -44 c4 -4 7 -14 7 -22 0 -8 6 -28 14
-45 66 -147 90 -217 100 -292 7 -59 33 -209 50 -293 l15 -72 -28 -43 c-36 -55
-63 -143 -60 -200 2 -38 -2 -49 -27 -72 l-29 -27 -13 104 c-22 183 -31 291
-32 399 0 58 -4 130 -9 160 -5 30 -12 149 -15 264 -4 172 -3 204 7 178 7 -17
15 -35 20 -39z m1974 -16 c-3 -8 -6 -5 -6 6 -1 11 2 17 5 13 3 -3 4 -12 1 -19z
m-20 -60 c-3 -7 -5 -2 -5 12 0 14 2 19 5 13 2 -7 2 -19 0 -25z m-1567 -99 c0
-11 -4 -17 -10 -14 -5 3 -10 15 -10 26 0 11 5 17 10 14 6 -3 10 -15 10 -26z
m1537 -21 c-3 -7 -5 -2 -5 12 0 14 2 19 5 13 2 -7 2 -19 0 -25z m-1487 -7 c0
-6 -4 -13 -10 -16 -5 -3 -10 1 -10 9 0 9 5 16 10 16 6 0 10 -4 10 -9z m50 -26
c0 -1 -8 -5 -18 -7 -11 -3 -19 0 -19 7 0 7 8 10 19 7 10 -2 18 -6 18 -7z m45
-25 c13 -5 14 -9 5 -9 -8 0 -24 4 -35 9 -13 5 -14 9 -5 9 8 0 24 -4 35 -9z
m1305 -4 c0 -2 -7 -6 -15 -10 -8 -3 -15 -1 -15 4 0 6 7 10 15 10 8 0 15 -2 15
-4z m-1260 -16 c0 -5 -9 -14 -20 -20 -24 -13 -26 -7 -4 14 18 18 24 20 24 6z
m1210 -10 c-8 -5 -24 -9 -35 -9 -16 1 -16 2 5 9 35 11 48 11 30 0z m437 -32
c-3 -7 -5 -2 -5 12 0 14 2 19 5 13 2 -7 2 -19 0 -25z m49 -56 c-11 -10 -13 3
-7 43 l6 40 3 -39 c2 -21 1 -41 -2 -44z m-539 62 c-3 -3 -12 -4 -19 -1 -8 3
-5 6 6 6 11 1 17 -2 13 -5z m160 -26 c-3 -8 -6 -5 -6 6 -1 11 2 17 5 13 3 -3
4 -12 1 -19z m-1380 -13 c-4 -8 -14 -14 -24 -14 -17 1 -17 2 0 6 9 2 17 12 17
20 0 9 3 14 6 10 4 -3 4 -13 1 -22z m1126 4 c-18 -5 -35 -14 -38 -19 -3 -6
-13 -10 -21 -10 -13 0 -13 2 -2 14 16 15 41 24 73 24 11 0 6 -4 -12 -9z m194
-41 c-2 -13 -4 -5 -4 17 -1 22 1 32 4 23 2 -10 2 -28 0 -40z m-291 13 c-3 -5
-7 -50 -8 -100 l-2 -90 39 -38 c21 -21 48 -45 61 -53 l22 -15 -29 -59 c-16
-32 -29 -64 -29 -72 0 -8 -4 -14 -10 -14 -5 0 -10 -5 -10 -11 0 -6 -6 -25 -14
-42 -8 -18 -26 -57 -39 -88 l-25 -55 -124 14 c-67 7 -144 16 -171 19 -41 4
-48 8 -54 31 -3 15 -17 47 -30 72 -20 36 -23 53 -17 85 9 52 9 142 -1 178 -6
22 -4 27 10 27 10 0 24 -8 31 -17 11 -15 13 -5 14 75 l0 92 77 0 c72 0 111 8
243 51 63 21 73 22 66 10z m-1096 -19 c0 -4 -9 -13 -20 -20 -22 -13 -27 -3 -8
16 14 14 28 16 28 4z m1139 -34 c1 -5 -3 -8 -9 -8 -5 0 -10 12 -9 28 0 24 1
25 9 7 5 -11 9 -23 9 -27z m-542 -8 c0 -16 -4 -30 -9 -30 -4 0 -8 14 -8 30 0
17 4 30 8 30 5 0 9 -13 9 -30z m73 0 c11 -7 7 -10 -17 -10 -17 0 -35 5 -38 10
-8 13 35 13 55 0z m663 -35 c15 -14 27 -34 27 -43 0 -13 -5 -10 -18 9 -26 39
-49 59 -67 59 -9 0 -13 5 -10 10 8 12 30 1 68 -35z m54 -117 c-3 -7 -5 -2 -5
12 0 14 2 19 5 13 2 -7 2 -19 0 -25z m-73 -96 c-10 -20 -17 -50 -16 -66 2 -15
-2 -33 -7 -40 -5 -6 -11 -20 -14 -31 -3 -13 -5 -9 -6 12 0 17 4 35 9 38 7 4 6
13 -1 27 -9 17 -8 24 5 33 9 7 16 19 16 28 0 9 5 19 10 22 6 3 11 16 11 28 1
18 2 19 6 4 3 -10 -3 -35 -13 -55z m553 6 c-3 -7 -5 -2 -5 12 0 14 2 19 5 13
2 -7 2 -19 0 -25z m30 -110 c-3 -8 -6 -5 -6 6 -1 11 2 17 5 13 3 -3 4 -12 1
-19z m-2358 -120 c1 -33 5 -58 11 -58 6 0 5 -6 -2 -14 -10 -10 -15 -11 -21 -2
-6 7 -7 5 -4 -5 3 -9 0 -22 -6 -28 -8 -8 -8 -11 2 -11 10 0 10 -4 3 -12 -5 -7
-12 -22 -15 -33 -2 -11 -5 18 -5 65 -1 60 2 78 8 63 16 -40 20 -25 15 55 -4
52 -2 71 4 57 5 -11 10 -46 10 -77z m1686 63 c3 -5 1 -12 -5 -16 -5 -3 -10 1
-10 9 0 18 6 21 15 7z m43 -38 c-2 -14 -8 -28 -14 -30 -7 -2 -9 8 -6 27 5 37
25 40 20 3z m-68 3 c0 -3 -4 -8 -10 -11 -5 -3 -10 -1 -10 4 0 6 5 11 10 11 6
0 10 -2 10 -4z m547 -16 c3 -10 2 -11 -4 -4 -4 6 -15 14 -23 17 -11 5 -9 6 4
4 11 -1 21 -9 23 -17z m93 -58 c3 -2 -6 -1 -19 3 -14 4 -34 17 -45 28 -19 18
-16 18 19 -3 22 -13 42 -26 45 -28z m-99 11 c16 -10 29 -21 29 -25 0 -14 -15
-9 -38 12 -22 20 -22 20 -22 1 0 -11 -3 -27 -6 -35 -5 -12 -2 -15 10 -10 10 4
15 13 12 20 -6 16 10 19 19 4 6 -10 -16 -37 -58 -70 -18 -13 -18 -12 -12 26 4
21 11 43 16 49 5 5 9 17 9 27 0 22 5 22 41 1z m-84 -15 c-3 -8 -6 -5 -6 6 -1
11 2 17 5 13 3 -3 4 -12 1 -19z m290 -40 c-3 -7 -5 -2 -5 12 0 14 2 19 5 13 2
-7 2 -19 0 -25z m-87 -18 c0 -6 -4 -10 -8 -10 -8 0 -27 -18 -165 -149 -37 -35
-69 -62 -72 -60 -2 3 2 29 10 59 14 55 42 88 139 167 37 30 41 31 68 17 15 -8
28 -19 28 -24z m-2300 -17 c-1 -38 -1 -38 -15 -13 -9 18 -10 29 -3 37 16 19
18 16 18 -24z m1245 26 c28 -5 89 -13 137 -18 48 -5 91 -12 96 -15 10 -6 -8
-76 -20 -76 -3 0 -9 -14 -13 -31 -4 -17 -13 -42 -21 -57 -8 -15 -14 -35 -14
-44 0 -9 -4 -19 -9 -22 -5 -4 -12 -24 -16 -46 -4 -22 -11 -40 -16 -40 -5 0 -9
-10 -9 -22 0 -50 -16 -53 -61 -15 -47 41 -60 44 -79 22 -26 -31 -50 -12 -50
41 0 31 -29 122 -41 130 -14 8 -11 47 6 87 8 20 15 55 15 77 0 45 4 46 95 29z
m335 7 c0 -3 -4 -8 -10 -11 -5 -3 -10 -1 -10 4 0 6 5 11 10 11 6 0 10 -2 10
-4z m100 -10 c0 -8 -6 -16 -14 -19 -10 -4 -12 0 -9 14 6 22 23 26 23 5z m684
-1 c10 -8 23 -12 27 -9 5 3 9 -5 9 -17 0 -22 -1 -22 -32 7 -18 16 -35 30 -37
32 -2 1 0 2 5 2 5 0 18 -7 28 -15z m-297 -47 c-3 -8 -6 -5 -6 6 -1 11 2 17 5
13 3 -3 4 -12 1 -19z m297 -15 c3 -7 2 -13 -3 -13 -5 0 -24 -13 -42 -30 -19
-16 -37 -30 -41 -30 -3 0 -47 -41 -97 -91 -50 -50 -91 -87 -91 -84 0 4 48 55
106 113 76 75 102 107 93 113 -9 5 -26 -5 -52 -32 -21 -21 -43 -39 -48 -39 -5
0 -9 -7 -9 -15 0 -8 -7 -15 -15 -15 -8 0 -15 -7 -15 -15 0 -8 -7 -15 -15 -15
-8 0 -15 -7 -15 -15 0 -8 -7 -15 -15 -15 -8 0 -15 -7 -15 -15 0 -8 -7 -15 -15
-15 -13 0 -17 -12 -14 -37 1 -5 5 -7 10 -6 17 5 9 -7 -31 -48 -22 -23 -40 -39
-40 -36 0 11 28 58 34 57 4 -1 12 1 19 3 7 3 5 6 -5 6 -38 2 -15 42 77 135 53
53 98 96 100 96 3 0 14 8 24 18 61 56 72 62 91 49 11 -6 22 -17 24 -24z
m-2360 -28 c-4 -8 -10 -15 -15 -15 -5 0 -9 -7 -9 -15 0 -9 -8 -19 -17 -22 -10
-4 -21 -11 -25 -17 -5 -7 -8 -4 -8 7 0 10 7 17 18 17 10 0 22 12 29 30 6 17
16 30 22 30 6 0 8 -7 5 -15z m1516 11 c0 -3 -4 -8 -10 -11 -5 -3 -10 -1 -10 4
0 6 5 11 10 11 6 0 10 -2 10 -4z m130 -46 c0 -5 -4 -10 -10 -10 -5 0 -10 5
-10 10 0 6 5 10 10 10 6 0 10 -4 10 -10z m-160 -14 c0 -3 -4 -8 -10 -11 -5 -3
-10 -1 -10 4 0 6 5 11 10 11 6 0 10 -2 10 -4z m-1520 -39 c0 -7 -4 -17 -10
-23 -5 -5 -13 -32 -17 -59 -4 -36 -15 -58 -35 -78 -15 -16 -28 -34 -28 -42 0
-7 -7 -15 -15 -19 -19 -7 -19 -2 5 69 25 72 38 101 64 138 21 29 36 35 36 14z
m2524 -13 c9 -3 16 -11 16 -16 0 -6 -7 -5 -16 3 -10 8 -18 9 -22 3 -12 -18
-42 -25 -36 -9 3 8 13 16 22 18 10 3 18 5 19 6 1 0 8 -2 17 -5z m-1034 -28 c0
-2 -7 -17 -15 -32 -16 -30 -19 -25 -9 14 5 18 24 33 24 18z m915 -66 c-27 -28
-53 -50 -57 -50 -11 0 -48 -38 -48 -50 0 -5 -4 -10 -10 -10 -13 0 -50 -37 -50
-50 0 -5 -4 -10 -10 -10 -10 0 -50 -36 -50 -45 0 -4 -16 -22 -35 -42 -19 -20
-35 -31 -35 -25 0 10 211 225 306 313 49 45 40 21 -11 -31z m-766 24 c-15 -18
-22 -13 -13 10 3 9 10 13 16 10 5 -3 4 -12 -3 -20z m398 -16 c-3 -8 -6 -5 -6
6 -1 11 2 17 5 13 3 -3 4 -12 1 -19z m537 6 c9 -23 8 -24 -11 -23 -12 0 -13 2
-5 6 10 4 10 8 1 19 -7 8 -7 14 -1 14 5 0 13 -7 16 -16z m-1123 -58 c-8 -14
-10 -33 -6 -47 4 -13 4 -21 0 -17 -5 4 -14 -4 -21 -18 -15 -29 -9 -53 9 -35
14 14 27 14 27 1 0 -5 -6 -10 -14 -10 -8 0 -16 -6 -19 -12 -2 -7 -8 -9 -13 -5
-13 12 -7 79 10 112 9 17 16 41 16 55 0 18 3 21 12 12 9 -9 9 -17 -1 -36z
m1094 24 c3 -5 -1 -10 -10 -10 -9 0 -13 5 -10 10 3 6 8 10 10 10 2 0 7 -4 10
-10z m-41 -25 c-4 -8 -10 -15 -14 -15 -4 0 -68 -59 -141 -130 -72 -72 -134
-128 -137 -125 -5 4 20 33 77 90 11 11 39 39 62 63 23 23 46 42 51 42 5 0 28
20 51 45 43 46 61 56 51 30z m-889 -5 c3 -5 1 -10 -4 -10 -6 0 -11 5 -11 10 0
6 2 10 4 10 3 0 8 -4 11 -10z m-32 -122 c-6 -7 -13 -24 -16 -38 -3 -15 -5 -10
-4 15 0 48 6 60 20 46 7 -7 7 -14 0 -23z m-2063 18 c0 -3 -4 -8 -10 -11 -5 -3
-10 -1 -10 4 0 6 5 11 10 11 6 0 10 -2 10 -4z m2000 -6 c0 -5 -4 -10 -10 -10
-5 0 -10 5 -10 10 0 6 5 10 10 10 6 0 10 -4 10 -10z m-68 -82 c-8 -8 -12 -9
-12 -1 0 6 -3 20 -6 30 -7 17 -6 17 12 1 14 -14 16 -21 6 -30z m68 22 c0 -5
-4 -10 -10 -10 -5 0 -10 5 -10 10 0 6 5 10 10 10 6 0 10 -4 10 -10z m30 -50
c-14 -27 -15 -26 -15 19 0 35 1 37 13 20 10 -14 10 -24 2 -39z m538 -51 c-17
-30 -68 -83 -68 -71 0 14 71 102 78 96 2 -1 -3 -12 -10 -25z"/>
<path d="M3006 1755 c4 -8 12 -15 20 -15 8 0 14 7 14 15 0 8 -9 15 -20 15 -13
0 -18 -5 -14 -15z"/>
<path d="M2230 1683 c-25 -9 -50 -35 -50 -52 1 -14 2 -13 11 2 18 31 25 18 21
-43 -7 -101 4 -146 49 -191 43 -43 76 -50 123 -25 53 27 68 55 64 119 -3 32
-9 62 -14 65 -5 4 -16 21 -25 37 -31 56 -132 105 -179 88z m107 -47 c35 -28
55 -53 74 -94 40 -81 5 -153 -74 -154 -35 0 -46 5 -69 33 -32 38 -34 53 -29
207 l1 34 42 -7 c23 -4 48 -12 55 -19z"/>
<path d="M3540 2430 c0 -5 5 -10 10 -10 6 0 10 5 10 10 0 6 -4 10 -10 10 -5 0
-10 -4 -10 -10z"/>
<path d="M2860 2050 c0 -5 5 -10 11 -10 5 0 7 5 4 10 -3 6 -8 10 -11 10 -2 0
-4 -4 -4 -10z"/>
<path d="M3477 636 c-7 -19 0 -25 24 -19 10 3 19 12 19 19 0 18 -36 18 -43 0z"/>
<path d="M503 3575 c0 -27 2 -38 4 -22 2 15 2 37 0 50 -2 12 -4 0 -4 -28z"/>
<path d="M448 3563 c7 -3 16 -2 19 1 4 3 -2 6 -13 5 -11 0 -14 -3 -6 -6z"/>
<path d="M4040 3320 c0 -5 5 -10 10 -10 6 0 10 5 10 10 0 6 -4 10 -10 10 -5 0
-10 -4 -10 -10z"/>
<path d="M4280 3320 c0 -5 5 -10 10 -10 6 0 10 5 10 10 0 6 -4 10 -10 10 -5 0
-10 -4 -10 -10z"/>
<path d="M3980 3260 c0 -5 5 -10 10 -10 6 0 10 5 10 10 0 6 -4 10 -10 10 -5 0
-10 -4 -10 -10z"/>
<path d="M4010 3260 c0 -5 5 -10 10 -10 6 0 10 5 10 10 0 6 -4 10 -10 10 -5 0
-10 -4 -10 -10z"/>
<path d="M4040 3260 c0 -5 5 -10 10 -10 6 0 10 5 10 10 0 6 -4 10 -10 10 -5 0
-10 -4 -10 -10z"/>
<path d="M4100 3260 c0 -5 5 -10 10 -10 6 0 10 5 10 10 0 6 -4 10 -10 10 -5 0
-10 -4 -10 -10z"/>
<path d="M4160 3260 c0 -5 5 -10 10 -10 6 0 10 5 10 10 0 6 -4 10 -10 10 -5 0
-10 -4 -10 -10z"/>
<path d="M4220 3260 c0 -5 5 -10 10 -10 6 0 10 5 10 10 0 6 -4 10 -10 10 -5 0
-10 -4 -10 -10z"/>
<path d="M4280 3260 c0 -5 5 -10 10 -10 6 0 10 5 10 10 0 6 -4 10 -10 10 -5 0
-10 -4 -10 -10z"/>
<path d="M4340 3260 c0 -5 5 -10 10 -10 6 0 10 5 10 10 0 6 -4 10 -10 10 -5 0
-10 -4 -10 -10z"/>
<path d="M4400 3260 c0 -5 5 -10 10 -10 6 0 10 5 10 10 0 6 -4 10 -10 10 -5 0
-10 -4 -10 -10z"/>
<path d="M4010 3230 c0 -5 5 -10 10 -10 6 0 10 5 10 10 0 6 -4 10 -10 10 -5 0
-10 -4 -10 -10z"/>
<path d="M4070 3230 c0 -5 5 -10 10 -10 6 0 10 5 10 10 0 6 -4 10 -10 10 -5 0
-10 -4 -10 -10z"/>
<path d="M4130 3230 c0 -5 5 -10 10 -10 6 0 10 5 10 10 0 6 -4 10 -10 10 -5 0
-10 -4 -10 -10z"/>
<path d="M4190 3230 c0 -5 5 -10 10 -10 6 0 10 5 10 10 0 6 -4 10 -10 10 -5 0
-10 -4 -10 -10z"/>
<path d="M4250 3230 c0 -5 5 -10 10 -10 6 0 10 5 10 10 0 6 -4 10 -10 10 -5 0
-10 -4 -10 -10z"/>
<path d="M4280 3200 c0 -5 5 -10 10 -10 6 0 10 5 10 10 0 6 -4 10 -10 10 -5 0
-10 -4 -10 -10z"/>
<path d="M4310 3200 c0 -5 5 -10 10 -10 6 0 10 5 10 10 0 6 -4 10 -10 10 -5 0
-10 -4 -10 -10z"/>
<path d="M4340 3200 c0 -5 5 -10 10 -10 6 0 10 5 10 10 0 6 -4 10 -10 10 -5 0
-10 -4 -10 -10z"/>
<path d="M4400 3200 c0 -5 5 -10 10 -10 6 0 10 5 10 10 0 6 -4 10 -10 10 -5 0
-10 -4 -10 -10z"/>
<path d="M4520 3200 c0 -5 5 -10 10 -10 6 0 10 5 10 10 0 6 -4 10 -10 10 -5 0
-10 -4 -10 -10z"/>
<path d="M4310 3170 c0 -5 5 -10 10 -10 6 0 10 5 10 10 0 6 -4 10 -10 10 -5 0
-10 -4 -10 -10z"/>
<path d="M4370 3170 c0 -5 5 -10 10 -10 6 0 10 5 10 10 0 6 -4 10 -10 10 -5 0
-10 -4 -10 -10z"/>
<path d="M4430 3170 c0 -5 5 -10 10 -10 6 0 10 5 10 10 0 6 -4 10 -10 10 -5 0
-10 -4 -10 -10z"/>
<path d="M4400 3140 c0 -5 5 -10 10 -10 6 0 10 5 10 10 0 6 -4 10 -10 10 -5 0
-10 -4 -10 -10z"/>
<path d="M4460 3140 c0 -5 5 -10 10 -10 6 0 10 5 10 10 0 6 -4 10 -10 10 -5 0
-10 -4 -10 -10z"/>
<path d="M4490 3140 c0 -5 5 -10 10 -10 6 0 10 5 10 10 0 6 -4 10 -10 10 -5 0
-10 -4 -10 -10z"/>
<path d="M4520 3140 c0 -5 5 -10 10 -10 6 0 10 5 10 10 0 6 -4 10 -10 10 -5 0
-10 -4 -10 -10z"/>
<path d="M4550 3140 c0 -5 5 -10 10 -10 6 0 10 5 10 10 0 6 -4 10 -10 10 -5 0
-10 -4 -10 -10z"/>
<path d="M4580 3140 c0 -5 5 -10 10 -10 6 0 10 5 10 10 0 6 -4 10 -10 10 -5 0
-10 -4 -10 -10z"/>
<path d="M4490 3110 c0 -5 5 -10 10 -10 6 0 10 5 10 10 0 6 -4 10 -10 10 -5 0
-10 -4 -10 -10z"/>
<path d="M4520 3110 c0 -5 5 -10 10 -10 6 0 10 5 10 10 0 6 -4 10 -10 10 -5 0
-10 -4 -10 -10z"/>
<path d="M4550 3110 c0 -5 5 -10 10 -10 6 0 10 5 10 10 0 6 -4 10 -10 10 -5 0
-10 -4 -10 -10z"/>
<path d="M493 3030 c0 -41 2 -58 4 -37 2 20 2 54 0 75 -2 20 -4 3 -4 -38z"/>
<path d="M4580 3080 c0 -5 5 -10 10 -10 6 0 10 5 10 10 0 6 -4 10 -10 10 -5 0
-10 -4 -10 -10z"/>
<path d="M470 2545 c0 -14 5 -25 12 -25 6 0 3 -7 -8 -16 -17 -14 -17 -15 -1
-10 10 3 21 6 23 6 6 0 5 36 -2 54 -9 25 -24 19 -24 -9z"/>
<path d="M10 2510 c0 -5 5 -10 10 -10 6 0 10 5 10 10 0 6 -4 10 -10 10 -5 0
-10 -4 -10 -10z"/>
<path d="M150 2510 c-20 -6 -16 -8 23 -9 30 -1 46 3 42 9 -7 11 -29 11 -65 0z"/>
<path d="M246 2509 c3 -5 19 -9 36 -9 17 0 28 3 25 6 -10 11 -67 13 -61 3z"/>
<path d="M31 2114 c0 -11 3 -14 6 -6 3 7 2 16 -1 19 -3 4 -6 -2 -5 -13z"/>
<path d="M51 858 c-1 -33 23 -48 59 -37 22 6 21 7 -12 8 -32 1 -37 4 -41 29
l-4 27 -2 -27z"/>
<path d="M341 825 c10 -9 714 -14 729 -5 10 6 -119 10 -359 10 -206 0 -372 -2
-370 -5z"/>
<path d="M843 553 c-7 -2 -13 -9 -13 -14 0 -12 43 -12 56 0 5 5 23 11 39 14
19 2 11 4 -20 5 -27 0 -56 -2 -62 -5z"/>
<path d="M545 540 l-250 -6 263 -2 c144 -1 262 0 262 2 0 10 -41 11 -275 6z"/>
<path d="M454 371 c3 -5 15 -7 26 -4 28 7 25 13 -6 13 -14 0 -23 -4 -20 -9z"/>
<path d="M552 374 c9 -9 182 -11 204 -3 10 4 -32 8 -95 8 -63 1 -112 -2 -109
-5z"/>
<path d="M258 363 c6 -2 18 -2 25 0 6 3 1 5 -13 5 -14 0 -19 -2 -12 -5z"/>
<path d="M818 323 c6 -2 18 -2 25 0 6 3 1 5 -13 5 -14 0 -19 -2 -12 -5z"/>
<path d="M873 323 c9 -2 23 -2 30 0 6 3 -1 5 -18 5 -16 0 -22 -2 -12 -5z"/>
<path d="M4007 323 c18 -2 50 -2 70 0 21 2 7 4 -32 4 -38 0 -55 -2 -38 -4z"/>
<path d="M4273 323 c15 -2 39 -2 55 0 15 2 2 4 -28 4 -30 0 -43 -2 -27 -4z"/>
<path d="M4393 323 c9 -2 25 -2 35 0 9 3 1 5 -18 5 -19 0 -27 -2 -17 -5z"/>
<path d="M1522 240 c-37 -6 -66 -18 -90 -38 -34 -27 -55 -72 -34 -72 5 0 26
-16 46 -35 21 -19 45 -35 55 -35 9 0 21 -4 27 -9 18 -18 182 -51 251 -51 92 0
233 47 233 77 0 30 -110 116 -167 129 -15 4 -32 10 -38 14 -14 11 -145 30
-192 29 -21 -1 -62 -5 -91 -9z"/>
<path d="M501 204 c0 -11 3 -14 6 -6 3 7 2 16 -1 19 -3 4 -6 -2 -5 -13z"/>
<path d="M380 160 c11 -20 30 -28 30 -12 0 11 -22 32 -32 32 -5 0 -4 -9 2 -20z"/>
<path d="M496 171 c-4 -7 -5 -15 -2 -18 9 -9 19 4 14 18 -4 11 -6 11 -12 0z"/>
<path d="M450 160 c0 -5 5 -10 10 -10 6 0 10 5 10 10 0 6 -4 10 -10 10 -5 0
-10 -4 -10 -10z"/>
<path d="M3963 153 c9 -2 25 -2 35 0 9 3 1 5 -18 5 -19 0 -27 -2 -17 -5z"/>
<path d="M4203 143 c26 -2 67 -2 90 0 23 2 2 3 -48 3 -49 0 -68 -1 -42 -3z"/>
<path d="M382 100 c0 -14 2 -19 5 -12 2 6 2 18 0 25 -3 6 -5 1 -5 -13z"/>
</g>
</svg>
